<svg width="543" height="107" viewBox="0 0 543 107" fill="none" xmlns="http://www.w3.org/2000/svg">
<g filter="url(#filter0_d_2070_2696)">
<path d="M75.1318 56.9832C75.1318 62.5741 74.1091 67.381 72.0637 71.4037C70.0182 75.4094 67.2142 78.4946 63.6517 80.6594C60.1063 82.8071 56.075 83.881 51.558 83.881C47.0239 83.881 42.9756 82.8071 39.4131 80.6594C35.8676 78.4946 33.0722 75.4008 31.0267 71.3781C28.9813 67.3554 27.9585 62.5571 27.9585 56.9832C27.9585 51.3923 28.9813 46.594 31.0267 42.5883C33.0722 38.5656 35.8676 35.4804 39.4131 33.3327C42.9756 31.1679 47.0239 30.0855 51.558 30.0855C56.075 30.0855 60.1063 31.1679 63.6517 33.3327C67.2142 35.4804 70.0182 38.5656 72.0637 42.5883C74.1091 46.594 75.1318 51.3923 75.1318 56.9832ZM67.308 56.9832C67.308 52.7219 66.6176 49.1338 65.237 46.219C63.8733 43.2872 61.9983 41.0713 59.612 39.5713C57.2426 38.0543 54.558 37.2957 51.558 37.2957C48.5409 37.2957 45.8477 38.0543 43.4784 39.5713C41.1091 41.0713 39.2341 43.2872 37.8534 46.219C36.4898 49.1338 35.808 52.7219 35.808 56.9832C35.808 61.2446 36.4898 64.8412 37.8534 67.773C39.2341 70.6878 41.1091 72.9037 43.4784 74.4207C45.8477 75.9207 48.5409 76.6707 51.558 76.6707C54.558 76.6707 57.2426 75.9207 59.612 74.4207C61.9983 72.9037 63.8733 70.6878 65.237 67.773C66.6176 64.8412 67.308 61.2446 67.308 56.9832Z" fill="#2C4C67"/>
</g>
<path d="M56.6165 8.1165C83.5425 8.1165 105.116 29.2711 105.117 55.0579C105.117 80.8448 83.5427 102 56.6165 102C29.6903 102 8.1165 80.8448 8.1165 55.0579C8.11669 29.2711 29.6905 8.1165 56.6165 8.1165Z" stroke="#294865" stroke-width="10"/>
<circle cx="51.9417" cy="51.9417" r="46.9417" stroke="url(#paint0_linear_2070_2696)" stroke-width="10"/>
<path d="M21.8155 21.8155C5.71358 37.3979 4.15532 65.4467 23.3738 83.1069C-2.59709 21.8155 48.8252 10.5058 79.4709 21.8157C55.0583 5.72205e-06 28.8582 15.0001 21.8155 21.8155Z" fill="url(#paint1_linear_2070_2696)"/>
<path d="M51.4228 10.3689C74.3826 10.3692 92.995 28.9823 92.995 51.9422C92.9948 74.9019 74.3825 93.5142 51.4228 93.5144C28.4664 93.5144 9.85555 74.9078 9.84951 51.9529C10.3698 28.0185 27.5169 10.3689 51.4228 10.3689Z" stroke="url(#paint2_linear_2070_2696)"/>
<g filter="url(#filter1_d_2070_2696)">
<path d="M72.0153 53.8667C72.0153 59.4576 70.9926 64.2644 68.9472 68.2872C66.9017 72.2929 64.0977 75.3781 60.5352 77.5429C56.9898 79.6906 52.9585 80.7644 48.4415 80.7644C43.9074 80.7644 39.8591 79.6906 36.2966 77.5429C32.7511 75.3781 29.9557 72.2843 27.9102 68.2616C25.8648 64.2389 24.842 59.4406 24.842 53.8667C24.842 48.2758 25.8648 43.4775 27.9102 39.4718C29.9557 35.4491 32.7511 32.3639 36.2966 30.2162C39.8591 28.0514 43.9074 26.969 48.4415 26.969C52.9585 26.969 56.9898 28.0514 60.5352 30.2162C64.0977 32.3639 66.9017 35.4491 68.9472 39.4718C70.9926 43.4775 72.0153 48.2758 72.0153 53.8667ZM64.1915 53.8667C64.1915 49.6054 63.5011 46.0173 62.1204 43.1025C60.7568 40.1707 58.8818 37.9548 56.4954 36.4548C54.1261 34.9377 51.4415 34.1792 48.4415 34.1792C45.4244 34.1792 42.7312 34.9377 40.3619 36.4548C37.9926 37.9548 36.1176 40.1707 34.7369 43.1025C33.3733 46.0173 32.6915 49.6054 32.6915 53.8667C32.6915 58.1281 33.3733 61.7247 34.7369 64.6565C36.1176 67.5713 37.9926 69.7872 40.3619 71.3042C42.7312 72.8042 45.4244 73.5542 48.4415 73.5542C51.4415 73.5542 54.1261 72.8042 56.4954 71.3042C58.8818 69.7872 60.7568 67.5713 62.1204 64.6565C63.5011 61.7247 64.1915 58.1281 64.1915 53.8667Z" fill="url(#paint3_linear_2070_2696)"/>
</g>
<g filter="url(#filter2_d_2070_2696)">
<mask id="path-7-outside-1_2070_2696" maskUnits="userSpaceOnUse" x="68.5243" y="69.6408" width="15" height="21" fill="black">
<rect fill="white" x="68.5243" y="69.6408" width="15" height="21"/>
<path d="M73.2543 86.5208C73.9343 86.5608 74.3843 86.5808 74.6043 86.5808C75.2843 86.5808 75.8843 86.5708 76.4043 86.5508C76.9443 86.5308 77.4043 86.5108 77.7843 86.4908C78.7643 86.4308 79.6443 86.4008 80.4243 86.4008C81.1843 86.4008 81.7443 86.6008 82.1043 87.0008C82.4643 87.4008 82.6443 87.9308 82.6443 88.5908C82.6443 88.9108 82.4343 89.1708 82.0143 89.3708C81.5943 89.5508 81.1643 89.6408 80.7243 89.6408C80.3443 89.6408 79.5543 89.6008 78.3543 89.5208C76.9143 89.4008 75.7843 89.3408 74.9643 89.3408C74.5243 89.3408 74.0043 89.3708 73.4043 89.4308C73.1643 89.4508 72.8743 89.4708 72.5343 89.4908C72.1943 89.5108 71.8143 89.5208 71.3943 89.5208C70.5943 89.5208 69.9843 89.4108 69.5643 89.1908C69.1443 88.9708 68.9343 88.5708 68.9343 87.9908C68.9343 87.4908 69.1343 86.9808 69.5343 86.4608C69.9343 85.9408 70.4943 85.3208 71.2143 84.6008L71.9343 83.8808C72.2543 83.5408 72.8443 82.9608 73.7043 82.1408C75.1243 80.8608 76.2243 79.7308 77.0043 78.7508C77.8043 77.7708 78.2043 76.8008 78.2043 75.8408C78.2043 75.2208 77.9043 74.7208 77.3043 74.3408C76.7243 73.9408 76.0543 73.7408 75.2943 73.7408C74.1343 73.7408 73.2943 74.0008 72.7743 74.5208C72.2743 75.0208 72.0243 75.7508 72.0243 76.7108C72.0243 76.9508 71.8843 77.1708 71.6043 77.3708C71.3443 77.5508 71.0143 77.6408 70.6143 77.6408C70.0543 77.6408 69.6643 77.4408 69.4443 77.0408C69.2243 76.6408 69.1143 76.1508 69.1143 75.5708C69.1143 74.6508 69.3943 73.8408 69.9543 73.1408C70.5143 72.4208 71.2743 71.8608 72.2343 71.4608C73.2143 71.0608 74.2943 70.8608 75.4743 70.8608C76.3143 70.8608 77.1843 71.0708 78.0843 71.4908C79.0043 71.8908 79.7643 72.4408 80.3643 73.1408C80.9843 73.8208 81.2943 74.5708 81.2943 75.3908C81.2943 76.6308 80.9843 77.8108 80.3643 78.9308C79.7443 80.0508 79.0143 81.0508 78.1743 81.9308C77.3543 82.7908 76.2843 83.8108 74.9643 84.9908C74.3243 85.5308 73.7543 86.0408 73.2543 86.5208Z"/>
</mask>
<path d="M73.2543 86.5208C73.9343 86.5608 74.3843 86.5808 74.6043 86.5808C75.2843 86.5808 75.8843 86.5708 76.4043 86.5508C76.9443 86.5308 77.4043 86.5108 77.7843 86.4908C78.7643 86.4308 79.6443 86.4008 80.4243 86.4008C81.1843 86.4008 81.7443 86.6008 82.1043 87.0008C82.4643 87.4008 82.6443 87.9308 82.6443 88.5908C82.6443 88.9108 82.4343 89.1708 82.0143 89.3708C81.5943 89.5508 81.1643 89.6408 80.7243 89.6408C80.3443 89.6408 79.5543 89.6008 78.3543 89.5208C76.9143 89.4008 75.7843 89.3408 74.9643 89.3408C74.5243 89.3408 74.0043 89.3708 73.4043 89.4308C73.1643 89.4508 72.8743 89.4708 72.5343 89.4908C72.1943 89.5108 71.8143 89.5208 71.3943 89.5208C70.5943 89.5208 69.9843 89.4108 69.5643 89.1908C69.1443 88.9708 68.9343 88.5708 68.9343 87.9908C68.9343 87.4908 69.1343 86.9808 69.5343 86.4608C69.9343 85.9408 70.4943 85.3208 71.2143 84.6008L71.9343 83.8808C72.2543 83.5408 72.8443 82.9608 73.7043 82.1408C75.1243 80.8608 76.2243 79.7308 77.0043 78.7508C77.8043 77.7708 78.2043 76.8008 78.2043 75.8408C78.2043 75.2208 77.9043 74.7208 77.3043 74.3408C76.7243 73.9408 76.0543 73.7408 75.2943 73.7408C74.1343 73.7408 73.2943 74.0008 72.7743 74.5208C72.2743 75.0208 72.0243 75.7508 72.0243 76.7108C72.0243 76.9508 71.8843 77.1708 71.6043 77.3708C71.3443 77.5508 71.0143 77.6408 70.6143 77.6408C70.0543 77.6408 69.6643 77.4408 69.4443 77.0408C69.2243 76.6408 69.1143 76.1508 69.1143 75.5708C69.1143 74.6508 69.3943 73.8408 69.9543 73.1408C70.5143 72.4208 71.2743 71.8608 72.2343 71.4608C73.2143 71.0608 74.2943 70.8608 75.4743 70.8608C76.3143 70.8608 77.1843 71.0708 78.0843 71.4908C79.0043 71.8908 79.7643 72.4408 80.3643 73.1408C80.9843 73.8208 81.2943 74.5708 81.2943 75.3908C81.2943 76.6308 80.9843 77.8108 80.3643 78.9308C79.7443 80.0508 79.0143 81.0508 78.1743 81.9308C77.3543 82.7908 76.2843 83.8108 74.9643 84.9908C74.3243 85.5308 73.7543 86.0408 73.2543 86.5208Z" fill="url(#paint4_linear_2070_2696)"/>
<path d="M73.2543 86.5208L72.9773 86.2322L72.3167 86.8663L73.2308 86.9201L73.2543 86.5208ZM76.4043 86.5508L76.3895 86.1511L76.3889 86.1511L76.4043 86.5508ZM77.7843 86.4908L77.8053 86.8902L77.8087 86.89L77.7843 86.4908ZM82.1043 87.0008L82.4016 86.7332L82.4016 86.7332L82.1043 87.0008ZM82.0143 89.3708L82.1718 89.7384L82.1791 89.7353L82.1862 89.7319L82.0143 89.3708ZM78.3543 89.5208L78.321 89.9195L78.3277 89.9199L78.3543 89.5208ZM73.4043 89.4308L73.4375 89.8295L73.4441 89.8288L73.4043 89.4308ZM72.5343 89.4908L72.5108 89.0915L72.5108 89.0915L72.5343 89.4908ZM69.5643 89.1908L69.7499 88.8364L69.7499 88.8364L69.5643 89.1908ZM69.5343 86.4608L69.2172 86.2169L69.2172 86.2169L69.5343 86.4608ZM71.2143 84.6008L70.9314 84.3179L70.9314 84.3179L71.2143 84.6008ZM71.9343 83.8808L72.2172 84.1638L72.2255 84.1549L71.9343 83.8808ZM73.7043 82.1408L73.4363 81.8436L73.4282 81.8513L73.7043 82.1408ZM77.0043 78.7508L76.6944 78.4978L76.6913 78.5017L77.0043 78.7508ZM77.3043 74.3408L77.0772 74.6701L77.0836 74.6745L77.0902 74.6787L77.3043 74.3408ZM72.7743 74.5208L73.0571 74.8036L73.0571 74.8036L72.7743 74.5208ZM71.6043 77.3708L71.832 77.6997L71.8368 77.6963L71.6043 77.3708ZM69.9543 73.1408L70.2666 73.3907L70.27 73.3864L69.9543 73.1408ZM72.2343 71.4608L72.0831 71.0904L72.0804 71.0915L72.2343 71.4608ZM78.0843 71.4908L77.9151 71.8534L77.9248 71.8576L78.0843 71.4908ZM80.3643 73.1408L80.0604 73.4012L80.0687 73.4103L80.3643 73.1408ZM80.3643 78.9308L80.7142 79.1245L80.7142 79.1245L80.3643 78.9308ZM78.1743 81.9308L77.8849 81.6546L77.8848 81.6547L78.1743 81.9308ZM74.9643 84.9908L75.2223 85.2966L75.2309 85.289L74.9643 84.9908ZM73.2543 86.5208L73.2308 86.9201C73.9085 86.96 74.3705 86.9808 74.6043 86.9808V86.5808V86.1808C74.3981 86.1808 73.96 86.1616 73.2778 86.1215L73.2543 86.5208ZM74.6043 86.5808V86.9808C75.2879 86.9808 75.8932 86.9707 76.4196 86.9505L76.4043 86.5508L76.3889 86.1511C75.8753 86.1708 75.2806 86.1808 74.6043 86.1808V86.5808ZM76.4043 86.5508L76.4191 86.9505C76.9604 86.9305 77.4226 86.9104 77.8053 86.8902L77.7843 86.4908L77.7632 86.0913C77.386 86.1112 76.9282 86.1311 76.3895 86.1511L76.4043 86.5508ZM77.7843 86.4908L77.8087 86.89C78.7825 86.8304 79.6542 86.8008 80.4243 86.8008V86.4008V86.0008C79.6344 86.0008 78.746 86.0311 77.7598 86.0915L77.7843 86.4908ZM80.4243 86.4008V86.8008C81.119 86.8008 81.5499 86.9828 81.807 87.2684L82.1043 87.0008L82.4016 86.7332C81.9386 86.2188 81.2496 86.0008 80.4243 86.0008V86.4008ZM82.1043 87.0008L81.807 87.2684C82.0867 87.5792 82.2443 88.0062 82.2443 88.5908H82.6443H83.0443C83.0443 87.8554 82.8418 87.2224 82.4016 86.7332L82.1043 87.0008ZM82.6443 88.5908H82.2443C82.2443 88.6901 82.1951 88.8416 81.8423 89.0096L82.0143 89.3708L82.1862 89.7319C82.6734 89.4999 83.0443 89.1315 83.0443 88.5908H82.6443ZM82.0143 89.3708L81.8567 89.0031C81.4845 89.1626 81.108 89.2408 80.7243 89.2408V89.6408V90.0408C81.2205 90.0408 81.704 89.9389 82.1718 89.7384L82.0143 89.3708ZM80.7243 89.6408V89.2408C80.36 89.2408 79.5836 89.2018 78.3809 89.1217L78.3543 89.5208L78.3277 89.9199C79.5249 89.9997 80.3286 90.0408 80.7243 90.0408V89.6408ZM78.3543 89.5208L78.3875 89.1222C76.9434 89.0018 75.8006 88.9408 74.9643 88.9408V89.3408V89.7408C75.7679 89.7408 76.8852 89.7997 78.3211 89.9194L78.3543 89.5208ZM74.9643 89.3408V88.9408C74.5071 88.9408 73.9732 88.9719 73.3645 89.0328L73.4043 89.4308L73.4441 89.8288C74.0353 89.7697 74.5414 89.7408 74.9643 89.7408V89.3408ZM73.4043 89.4308L73.3711 89.0322C73.1353 89.0518 72.8487 89.0716 72.5108 89.0915L72.5343 89.4908L72.5578 89.8901C72.8998 89.87 73.1932 89.8498 73.4375 89.8294L73.4043 89.4308ZM72.5343 89.4908L72.5108 89.0915C72.1802 89.1109 71.8082 89.1208 71.3943 89.1208V89.5208V89.9208C71.8204 89.9208 72.2084 89.9106 72.5578 89.8901L72.5343 89.4908ZM71.3943 89.5208V89.1208C70.62 89.1208 70.086 89.0125 69.7499 88.8364L69.5643 89.1908L69.3787 89.5451C69.8826 89.8091 70.5685 89.9208 71.3943 89.9208V89.5208ZM69.5643 89.1908L69.7499 88.8364C69.4935 88.7022 69.3343 88.4617 69.3343 87.9908H68.9343H68.5343C68.5343 88.6799 68.795 89.2394 69.3787 89.5451L69.5643 89.1908ZM68.9343 87.9908H69.3343C69.3343 87.6031 69.4883 87.1766 69.8513 86.7047L69.5343 86.4608L69.2172 86.2169C68.7802 86.785 68.5343 87.3785 68.5343 87.9908H68.9343ZM69.5343 86.4608L69.8513 86.7047C70.2367 86.2037 70.7835 85.5973 71.4971 84.8836L71.2143 84.6008L70.9314 84.3179C70.2051 85.0443 69.6318 85.6779 69.2172 86.2169L69.5343 86.4608ZM71.2143 84.6008L71.4971 84.8836L72.2171 84.1636L71.9343 83.8808L71.6514 83.5979L70.9314 84.3179L71.2143 84.6008ZM71.9343 83.8808L72.2255 84.1549C72.5372 83.8238 73.12 83.2506 73.9803 82.4303L73.7043 82.1408L73.4282 81.8513C72.5686 82.671 71.9713 83.2578 71.643 83.6066L71.9343 83.8808ZM73.7043 82.1408L73.9721 82.4379C75.4009 81.15 76.5184 80.0036 77.3172 78.9999L77.0043 78.7508L76.6913 78.5017C75.9301 79.458 74.8477 80.5716 73.4365 81.8437L73.7043 82.1408ZM77.0043 78.7508L77.3141 79.0037C78.1538 77.9752 78.6043 76.9187 78.6043 75.8408H78.2043H77.8043C77.8043 76.6829 77.4548 77.5664 76.6944 78.4978L77.0043 78.7508ZM78.2043 75.8408H78.6043C78.6043 75.0618 78.2143 74.4436 77.5183 74.0028L77.3043 74.3408L77.0902 74.6787C77.5943 74.9979 77.8043 75.3798 77.8043 75.8408H78.2043ZM77.3043 74.3408L77.5314 74.0115C76.8793 73.5618 76.1287 73.3408 75.2943 73.3408V73.7408V74.1408C75.9799 74.1408 76.5693 74.3198 77.0772 74.6701L77.3043 74.3408ZM75.2943 73.7408V73.3408C74.0875 73.3408 73.1199 73.6094 72.4914 74.2379L72.7743 74.5208L73.0571 74.8036C73.4686 74.3921 74.1811 74.1408 75.2943 74.1408V73.7408ZM72.7743 74.5208L72.4914 74.2379C71.8928 74.8366 71.6243 75.6836 71.6243 76.7108H72.0243H72.4243C72.4243 75.8179 72.6558 75.2049 73.0571 74.8036L72.7743 74.5208ZM72.0243 76.7108H71.6243C71.6243 76.7717 71.5952 76.8857 71.3718 77.0453L71.6043 77.3708L71.8368 77.6963C72.1733 77.4559 72.4243 77.1299 72.4243 76.7108H72.0243ZM71.6043 77.3708L71.3766 77.0419C71.1993 77.1647 70.9545 77.2408 70.6143 77.2408V77.6408V78.0408C71.074 78.0408 71.4893 77.9369 71.832 77.6997L71.6043 77.3708ZM70.6143 77.6408V77.2408C70.161 77.2408 69.9274 77.0892 69.7948 76.848L69.4443 77.0408L69.0938 77.2335C69.4011 77.7923 69.9475 78.0408 70.6143 78.0408V77.6408ZM69.4443 77.0408L69.7948 76.848C69.6149 76.5209 69.5143 76.1012 69.5143 75.5708H69.1143H68.7143C68.7143 76.2003 68.8337 76.7606 69.0938 77.2335L69.4443 77.0408ZM69.1143 75.5708H69.5143C69.5143 74.739 69.765 74.0177 70.2666 73.3907L69.9543 73.1408L69.6419 72.8909C69.0236 73.6638 68.7143 74.5625 68.7143 75.5708H69.1143ZM69.9543 73.1408L70.27 73.3864C70.782 72.7281 71.4828 72.2072 72.3881 71.83L72.2343 71.4608L72.0804 71.0915C71.0658 71.5143 70.2466 72.1134 69.6385 72.8952L69.9543 73.1408ZM72.2343 71.4608L72.3854 71.8311C73.3122 71.4528 74.3402 71.2608 75.4743 71.2608V70.8608V70.4608C74.2484 70.4608 73.1163 70.6687 72.0831 71.0904L72.2343 71.4608ZM75.4743 70.8608V71.2608C76.2461 71.2608 77.0585 71.4535 77.9151 71.8533L78.0843 71.4908L78.2534 71.1283C77.31 70.688 76.3824 70.4608 75.4743 70.4608V70.8608ZM78.0843 71.4908L77.9248 71.8576C78.7942 72.2356 79.5033 72.751 80.0606 73.4011L80.3643 73.1408L80.668 72.8805C80.0252 72.1306 79.2143 71.5459 78.2438 71.1239L78.0843 71.4908ZM80.3643 73.1408L80.0687 73.4103C80.6304 74.0263 80.8943 74.6829 80.8943 75.3908H81.2943H81.6943C81.6943 74.4587 81.3382 73.6153 80.6599 72.8713L80.3643 73.1408ZM81.2943 75.3908H80.8943C80.8943 76.5608 80.6026 77.6743 80.0143 78.7371L80.3643 78.9308L80.7142 79.1245C81.3659 77.9472 81.6943 76.7008 81.6943 75.3908H81.2943ZM80.3643 78.9308L80.0143 78.7371C79.41 79.8286 78.7001 80.8006 77.8849 81.6546L78.1743 81.9308L78.4636 82.207C79.3285 81.3009 80.0785 80.2729 80.7142 79.1245L80.3643 78.9308ZM78.1743 81.9308L77.8848 81.6547C77.0747 82.5043 76.0132 83.5166 74.6977 84.6926L74.9643 84.9908L75.2309 85.289C76.5554 84.105 77.6338 83.0772 78.4638 82.2068L78.1743 81.9308ZM74.9643 84.9908L74.7063 84.6851C74.0611 85.2295 73.4845 85.7452 72.9773 86.2322L73.2543 86.5208L73.5313 86.8093C74.024 86.3363 74.5875 85.8321 75.2222 85.2965L74.9643 84.9908Z" fill="#F5F5F5" mask="url(#path-7-outside-1_2070_2696)"/>
</g>
<circle cx="51.9417" cy="51.9417" r="51.4417" stroke="#B5ECFF"/>
<path d="M141.891 0.454542L167.382 42.1259H168.215L193.707 0.454542H212.331L179.14 53.7273L212.539 107H193.811L168.215 65.9009H167.382L141.787 107H123.058L157.03 53.7273L123.266 0.454542H141.891Z" fill="url(#paint5_linear_2070_2696)"/>
<path d="M136.031 2.45454L160.566 42.5614H161.367L185.902 2.45454H203.827L171.882 53.7273L204.028 105H186.002L161.367 65.4439H160.566L135.931 105H117.906L150.602 53.7273L118.106 2.45454H136.031Z" fill="url(#paint6_linear_2070_2696)"/>
<mask id="path-12-outside-2_2070_2696" maskUnits="userSpaceOnUse" x="114" y="0" width="94" height="107" fill="black">
<rect fill="white" x="114" width="94" height="107"/>
<path d="M136.031 2.45454L160.566 42.5614H161.367L185.902 2.45454H203.827L171.882 53.7273L204.028 105H186.002L161.367 65.4439H160.566L135.931 105H117.906L150.602 53.7273L118.106 2.45454H136.031Z"/>
</mask>
<path d="M136.031 2.45454L137.737 1.41087L137.152 0.454542H136.031V2.45454ZM160.566 42.5614L158.86 43.6051L159.445 44.5614H160.566V42.5614ZM161.367 42.5614V44.5614H162.488L163.073 43.6051L161.367 42.5614ZM185.902 2.45454V0.454542H184.781L184.196 1.41087L185.902 2.45454ZM203.827 2.45454L205.525 3.51216L207.43 0.454542H203.827V2.45454ZM171.882 53.7273L170.185 52.6697L169.524 53.7306L170.188 54.7896L171.882 53.7273ZM204.028 105V107H207.642L205.722 103.938L204.028 105ZM186.002 105L184.304 106.057L184.892 107H186.002V105ZM161.367 65.4439L163.065 64.3866L162.478 63.4439H161.367V65.4439ZM160.566 65.4439V63.4439H159.455L158.868 64.3866L160.566 65.4439ZM135.931 105V107H137.042L137.629 106.057L135.931 105ZM117.906 105L116.219 103.925L114.258 107H117.906V105ZM150.602 53.7273L152.288 54.8026L152.972 53.7306L152.291 52.6566L150.602 53.7273ZM118.106 2.45454V0.454542H114.47L116.417 3.5252L118.106 2.45454ZM136.031 2.45454L134.325 3.49822L158.86 43.6051L160.566 42.5614L162.272 41.5178L137.737 1.41087L136.031 2.45454ZM160.566 42.5614V44.5614H161.367V42.5614V40.5614H160.566V42.5614ZM161.367 42.5614L163.073 43.6051L187.608 3.49822L185.902 2.45454L184.196 1.41087L159.661 41.5178L161.367 42.5614ZM185.902 2.45454V4.45454H203.827V2.45454V0.454542H185.902V2.45454ZM203.827 2.45454L202.13 1.39693L170.185 52.6697L171.882 53.7273L173.58 54.7849L205.525 3.51216L203.827 2.45454ZM171.882 53.7273L170.188 54.7896L202.333 106.062L204.028 105L205.722 103.938L173.577 52.6649L171.882 53.7273ZM204.028 105V103H186.002V105V107H204.028V105ZM186.002 105L187.7 103.943L163.065 64.3866L161.367 65.4439L159.67 66.5012L184.304 106.057L186.002 105ZM161.367 65.4439V63.4439H160.566V65.4439V67.4439H161.367V65.4439ZM160.566 65.4439L158.868 64.3866L134.233 103.943L135.931 105L137.629 106.057L162.264 66.5012L160.566 65.4439ZM135.931 105V103H117.906V105V107H135.931V105ZM117.906 105L119.592 106.075L152.288 54.8026L150.602 53.7273L148.916 52.6519L116.219 103.925L117.906 105ZM150.602 53.7273L152.291 52.6566L119.795 1.38389L118.106 2.45454L116.417 3.5252L148.913 54.7979L150.602 53.7273ZM118.106 2.45454V4.45454H136.031V2.45454V0.454542H118.106V2.45454Z" fill="url(#paint7_linear_2070_2696)" mask="url(#path-12-outside-2_2070_2696)"/>
<path d="M229.486 0.454542H247.746L275.579 48.889H276.724L304.556 0.454542H322.817L284.163 65.1726V107H268.14V65.1726L229.486 0.454542Z" fill="url(#paint8_linear_2070_2696)"/>
<path d="M224.355 2.45454H241.93L268.718 49.0707H269.819L296.607 2.45454H314.182L276.979 64.7429V105H261.558V64.7429L224.355 2.45454Z" fill="url(#paint9_linear_2070_2696)"/>
<mask id="path-16-outside-3_2070_2696" maskUnits="userSpaceOnUse" x="220" y="0" width="98" height="107" fill="black">
<rect fill="white" x="220" width="98" height="107"/>
<path d="M224.355 2.45454H241.93L268.718 49.0707H269.819L296.607 2.45454H314.182L276.979 64.7429V105H261.558V64.7429L224.355 2.45454Z"/>
</mask>
<path d="M224.355 2.45454V0.454542H220.831L222.638 3.48008L224.355 2.45454ZM241.93 2.45454L243.664 1.45806L243.087 0.454542H241.93V2.45454ZM268.718 49.0707L266.984 50.0672L267.56 51.0707H268.718V49.0707ZM269.819 49.0707V51.0707H270.977L271.553 50.0672L269.819 49.0707ZM296.607 2.45454V0.454542H295.45L294.873 1.45806L296.607 2.45454ZM314.182 2.45454L315.899 3.48008L317.706 0.454542H314.182V2.45454ZM276.979 64.7429L275.262 63.7174L274.979 64.1911V64.7429H276.979ZM276.979 105V107H278.979V105H276.979ZM261.558 105H259.558V107H261.558V105ZM261.558 64.7429H263.558V64.1911L263.275 63.7174L261.558 64.7429ZM224.355 2.45454V4.45454H241.93V2.45454V0.454542H224.355V2.45454ZM241.93 2.45454L240.196 3.45103L266.984 50.0672L268.718 49.0707L270.452 48.0742L243.664 1.45806L241.93 2.45454ZM268.718 49.0707V51.0707H269.819V49.0707V47.0707H268.718V49.0707ZM269.819 49.0707L271.553 50.0672L298.341 3.45103L296.607 2.45454L294.873 1.45806L268.085 48.0742L269.819 49.0707ZM296.607 2.45454V4.45454H314.182V2.45454V0.454542H296.607V2.45454ZM314.182 2.45454L312.465 1.429L275.262 63.7174L276.979 64.7429L278.696 65.7684L315.899 3.48008L314.182 2.45454ZM276.979 64.7429H274.979V105H276.979H278.979V64.7429H276.979ZM276.979 105V103H261.558V105V107H276.979V105ZM261.558 105H263.558V64.7429H261.558H259.558V105H261.558ZM261.558 64.7429L263.275 63.7174L226.072 1.429L224.355 2.45454L222.638 3.48008L259.84 65.7684L261.558 64.7429Z" fill="url(#paint10_linear_2070_2696)" mask="url(#path-16-outside-3_2070_2696)"/>
<path d="M349.705 107V0.454542H387.683C395.938 0.454542 402.787 1.87654 408.233 4.72052C413.712 7.56451 417.805 11.501 420.51 16.53C423.216 21.5243 424.568 27.299 424.568 33.854C424.568 40.3744 423.198 46.1144 420.458 51.074C417.753 55.999 413.66 59.8314 408.181 62.5714C402.735 65.3113 395.886 66.6813 387.631 66.6813H358.862V52.8429H386.174C391.377 52.8429 395.608 52.0972 398.868 50.6058C402.163 49.1145 404.574 46.9468 406.1 44.1028C407.626 41.2588 408.389 37.8426 408.389 33.854C408.389 29.8308 407.608 26.3452 406.048 23.3972C404.522 20.4492 402.111 18.1948 398.816 16.6341C395.556 15.0386 391.273 14.2409 385.966 14.2409H365.781V107H349.705ZM402.302 58.9297L428.626 107H410.314L384.51 58.9297H402.302Z" fill="url(#paint11_linear_2070_2696)"/>
<path d="M344.266 105V2.45454H380.818C388.762 2.45454 395.355 3.82315 400.596 6.56037C405.87 9.29758 409.809 13.0863 412.413 17.9265C415.016 22.7333 416.318 28.2912 416.318 34.6001C416.318 40.8757 415 46.4002 412.363 51.1737C409.759 55.9137 405.82 59.6023 400.546 62.2393C395.305 64.8764 388.712 66.195 380.768 66.195H353.078V52.8761H379.366C384.373 52.8761 388.445 52.1584 391.583 50.723C394.754 49.2876 397.074 47.2013 398.543 44.4641C400.012 41.7269 400.746 38.4389 400.746 34.6001C400.746 30.728 399.995 27.3732 398.493 24.5359C397.024 21.6985 394.704 19.5288 391.533 18.0266C388.395 16.4911 384.273 15.7234 379.165 15.7234H359.738V105H344.266ZM394.888 58.7344L420.224 105H402.599L377.763 58.7344H394.888Z" fill="url(#paint12_linear_2070_2696)"/>
<mask id="path-20-outside-4_2070_2696" maskUnits="userSpaceOnUse" x="342" y="0" width="82" height="107" fill="black">
<rect fill="white" x="342" width="82" height="107"/>
<path d="M344.266 105V2.45454H380.818C388.762 2.45454 395.355 3.82315 400.596 6.56037C405.87 9.29758 409.809 13.0863 412.413 17.9265C415.016 22.7333 416.318 28.2912 416.318 34.6001C416.318 40.8757 415 46.4002 412.363 51.1737C409.759 55.9137 405.82 59.6023 400.546 62.2393C395.305 64.8764 388.712 66.195 380.768 66.195H353.078V52.8761H379.366C384.373 52.8761 388.445 52.1584 391.583 50.723C394.754 49.2876 397.074 47.2013 398.543 44.4641C400.012 41.7269 400.746 38.4389 400.746 34.6001C400.746 30.728 399.995 27.3732 398.493 24.5359C397.024 21.6985 394.704 19.5288 391.533 18.0266C388.395 16.4911 384.273 15.7234 379.165 15.7234H359.738V105H344.266ZM394.888 58.7344L420.224 105H402.599L377.763 58.7344H394.888Z"/>
</mask>
<path d="M344.266 105H342.266V107H344.266V105ZM344.266 2.45454V0.454542H342.266V2.45454H344.266ZM400.596 6.56037L399.67 8.33314L399.675 8.33553L400.596 6.56037ZM412.413 17.9265L410.651 18.874L410.654 18.8791L412.413 17.9265ZM412.363 51.1737L410.612 50.2065L410.61 50.2108L412.363 51.1737ZM400.546 62.2393L399.651 60.4505L399.647 60.4528L400.546 62.2393ZM353.078 66.195H351.078V68.195H353.078V66.195ZM353.078 52.8761V50.8761H351.078V52.8761H353.078ZM391.583 50.723L390.758 48.901L390.751 48.9043L391.583 50.723ZM398.493 24.5359L396.717 25.4553L396.721 25.4635L396.725 25.4716L398.493 24.5359ZM391.533 18.0266L390.654 19.8231L390.665 19.8287L390.677 19.8341L391.533 18.0266ZM359.738 15.7234V13.7234H357.738V15.7234H359.738ZM359.738 105V107H361.738V105H359.738ZM394.888 58.7344L396.642 57.7737L396.073 56.7344H394.888V58.7344ZM420.224 105V107H423.599L421.978 104.039L420.224 105ZM402.599 105L400.837 105.946L401.402 107H402.599V105ZM377.763 58.7344V56.7344H374.42L376.001 59.6803L377.763 58.7344ZM344.266 105H346.266V2.45454H344.266H342.266V105H344.266ZM344.266 2.45454V4.45454H380.818V2.45454V0.454542H344.266V2.45454ZM380.818 2.45454V4.45454C388.546 4.45454 394.796 5.78756 399.67 8.33313L400.596 6.56037L401.522 4.7876C395.914 1.85874 388.979 0.454542 380.818 0.454542V2.45454ZM400.596 6.56037L399.675 8.33553C404.622 10.9033 408.254 14.4168 410.651 18.874L412.413 17.9265L414.174 16.979C411.364 11.7558 407.118 7.69184 401.517 4.7852L400.596 6.56037ZM412.413 17.9265L410.654 18.8791C413.076 23.3511 414.318 28.5722 414.318 34.6001H416.318H418.318C418.318 28.0102 416.956 22.1155 414.171 16.9739L412.413 17.9265ZM416.318 34.6001H414.318C414.318 40.5889 413.062 45.7712 410.612 50.2065L412.363 51.1737L414.113 52.1408C416.937 47.0292 418.318 41.1625 418.318 34.6001H416.318ZM412.363 51.1737L410.61 50.2108C408.219 54.5624 404.597 57.9779 399.651 60.4505L400.546 62.2393L401.44 64.0282C407.043 61.2266 411.298 57.265 414.116 52.1365L412.363 51.1737ZM400.546 62.2393L399.647 60.4528C394.766 62.9088 388.505 64.195 380.768 64.195V66.195V68.195C388.919 68.195 395.844 66.844 401.445 64.0259L400.546 62.2393ZM380.768 66.195V64.195H353.078V66.195V68.195H380.768V66.195ZM353.078 66.195H355.078V52.8761H353.078H351.078V66.195H353.078ZM353.078 52.8761V54.8761H379.366V52.8761V50.8761H353.078V52.8761ZM379.366 52.8761V54.8761C384.541 54.8761 388.926 54.1379 392.415 52.5418L391.583 50.723L390.751 48.9043C387.965 50.1789 384.205 50.8761 379.366 50.8761V52.8761ZM391.583 50.723L392.408 52.5451C395.929 50.9515 398.604 48.5806 400.305 45.4098L398.543 44.4641L396.781 43.5185C395.545 45.8221 393.58 47.6238 390.758 48.901L391.583 50.723ZM398.543 44.4641L400.305 45.4098C401.963 42.321 402.746 38.6922 402.746 34.6001H400.746H398.746C398.746 38.1856 398.061 41.1329 396.781 43.5185L398.543 44.4641ZM400.746 34.6001H402.746C402.746 30.4685 401.944 26.7795 400.26 23.6001L398.493 24.5359L396.725 25.4716C398.046 27.967 398.746 30.9875 398.746 34.6001H400.746ZM398.493 24.5359L400.269 23.6165C398.579 20.3518 395.915 17.8892 392.389 16.2192L391.533 18.0266L390.677 19.8341C393.494 21.1683 395.469 23.0452 396.717 25.4553L398.493 24.5359ZM391.533 18.0266L392.412 16.2302C388.904 14.5134 384.447 13.7234 379.165 13.7234V15.7234V17.7234C384.098 17.7234 387.887 18.4688 390.654 19.8231L391.533 18.0266ZM379.165 15.7234V13.7234H359.738V15.7234V17.7234H379.165V15.7234ZM359.738 15.7234H357.738V105H359.738H361.738V15.7234H359.738ZM359.738 105V103H344.266V105V107H359.738V105ZM394.888 58.7344L393.134 59.695L418.47 105.961L420.224 105L421.978 104.039L396.642 57.7737L394.888 58.7344ZM420.224 105V103H402.599V105V107H420.224V105ZM402.599 105L404.361 104.054L379.526 57.7885L377.763 58.7344L376.001 59.6803L400.837 105.946L402.599 105ZM377.763 58.7344V60.7344H394.888V58.7344V56.7344H377.763V58.7344Z" fill="url(#paint13_linear_2070_2696)" mask="url(#path-20-outside-4_2070_2696)"/>
<path d="M460.706 107H443.642L481.983 0.454542H500.556L538.898 107H521.834L491.712 19.8075H490.88L460.706 107ZM463.567 65.2766H518.921V78.8029H463.567V65.2766Z" fill="url(#paint14_linear_2070_2696)"/>
<path d="M454.928 105H438.505L475.407 2.45454H493.283L530.185 105H513.762L484.771 21.081H483.969L454.928 105ZM457.682 64.843H510.958V77.8615H457.682V64.843Z" fill="url(#paint15_linear_2070_2696)"/>
<mask id="path-24-outside-5_2070_2696" maskUnits="userSpaceOnUse" x="435" y="0" width="99" height="107" fill="black">
<rect fill="white" x="435" width="99" height="107"/>
<path d="M454.928 105H438.505L475.407 2.45454H493.283L530.185 105H513.762L484.771 21.081H483.969L454.928 105ZM457.682 64.843H510.958V77.8615H457.682V64.843Z"/>
</mask>
<path d="M454.928 105V107H456.353L456.818 105.654L454.928 105ZM438.505 105L436.623 104.323L435.66 107H438.505V105ZM475.407 2.45454V0.454542H474.001L473.525 1.77733L475.407 2.45454ZM493.283 2.45454L495.165 1.77733L494.689 0.454542H493.283V2.45454ZM530.185 105V107H533.03L532.067 104.323L530.185 105ZM513.762 105L511.871 105.653L512.337 107H513.762V105ZM484.771 21.081L486.661 20.4279L486.196 19.081H484.771V21.081ZM483.969 21.081V19.081H482.545L482.079 20.4269L483.969 21.081ZM457.682 64.843V62.843H455.682V64.843H457.682ZM510.958 64.843H512.958V62.843H510.958V64.843ZM510.958 77.8615V79.8615H512.958V77.8615H510.958ZM457.682 77.8615H455.682V79.8615H457.682V77.8615ZM454.928 105V103H438.505V105V107H454.928V105ZM438.505 105L440.387 105.677L477.289 3.13175L475.407 2.45454L473.525 1.77733L436.623 104.323L438.505 105ZM475.407 2.45454V4.45454H493.283V2.45454V0.454542H475.407V2.45454ZM493.283 2.45454L491.401 3.13175L528.303 105.677L530.185 105L532.067 104.323L495.165 1.77733L493.283 2.45454ZM530.185 105V103H513.762V105V107H530.185V105ZM513.762 105L515.652 104.347L486.661 20.4279L484.771 21.081L482.88 21.734L511.871 105.653L513.762 105ZM484.771 21.081V19.081H483.969V21.081V23.081H484.771V21.081ZM483.969 21.081L482.079 20.4269L453.038 104.346L454.928 105L456.818 105.654L485.859 21.735L483.969 21.081ZM457.682 64.843V66.843H510.958V64.843V62.843H457.682V64.843ZM510.958 64.843H508.958V77.8615H510.958H512.958V64.843H510.958ZM510.958 77.8615V75.8615H457.682V77.8615V79.8615H510.958V77.8615ZM457.682 77.8615H459.682V64.843H457.682H455.682V77.8615H457.682Z" fill="url(#paint16_linear_2070_2696)" mask="url(#path-24-outside-5_2070_2696)"/>
<defs>
<filter id="filter0_d_2070_2696" x="26.9585" y="29.5855" width="49.1733" height="55.7955" filterUnits="userSpaceOnUse" color-interpolation-filters="sRGB">
<feFlood flood-opacity="0" result="BackgroundImageFix"/>
<feColorMatrix in="SourceAlpha" type="matrix" values="0 0 0 0 0 0 0 0 0 0 0 0 0 0 0 0 0 0 127 0" result="hardAlpha"/>
<feOffset dy="0.5"/>
<feGaussianBlur stdDeviation="0.5"/>
<feComposite in2="hardAlpha" operator="out"/>
<feColorMatrix type="matrix" values="0 0 0 0 0 0 0 0 0 0 0 0 0 0 0 0 0 0 0.5 0"/>
<feBlend mode="normal" in2="BackgroundImageFix" result="effect1_dropShadow_2070_2696"/>
<feBlend mode="normal" in="SourceGraphic" in2="effect1_dropShadow_2070_2696" result="shape"/>
</filter>
<filter id="filter1_d_2070_2696" x="23.842" y="25.969" width="49.1733" height="55.7955" filterUnits="userSpaceOnUse" color-interpolation-filters="sRGB">
<feFlood flood-opacity="0" result="BackgroundImageFix"/>
<feColorMatrix in="SourceAlpha" type="matrix" values="0 0 0 0 0 0 0 0 0 0 0 0 0 0 0 0 0 0 127 0" result="hardAlpha"/>
<feOffset/>
<feGaussianBlur stdDeviation="0.5"/>
<feComposite in2="hardAlpha" operator="out"/>
<feColorMatrix type="matrix" values="0 0 0 0 0 0 0 0 0 0 0 0 0 0 0 0 0 0 0.75 0"/>
<feBlend mode="normal" in2="BackgroundImageFix" result="effect1_dropShadow_2070_2696"/>
<feBlend mode="normal" in="SourceGraphic" in2="effect1_dropShadow_2070_2696" result="shape"/>
</filter>
<filter id="filter2_d_2070_2696" x="68.0343" y="69.9608" width="15.51" height="20.58" filterUnits="userSpaceOnUse" color-interpolation-filters="sRGB">
<feFlood flood-opacity="0" result="BackgroundImageFix"/>
<feColorMatrix in="SourceAlpha" type="matrix" values="0 0 0 0 0 0 0 0 0 0 0 0 0 0 0 0 0 0 127 0" result="hardAlpha"/>
<feOffset/>
<feGaussianBlur stdDeviation="0.25"/>
<feComposite in2="hardAlpha" operator="out"/>
<feColorMatrix type="matrix" values="0 0 0 0 0 0 0 0 0 0 0 0 0 0 0 0 0 0 0.25 0"/>
<feBlend mode="normal" in2="BackgroundImageFix" result="effect1_dropShadow_2070_2696"/>
<feBlend mode="normal" in="SourceGraphic" in2="effect1_dropShadow_2070_2696" result="shape"/>
</filter>
<linearGradient id="paint0_linear_2070_2696" x1="51.9417" y1="0" x2="51.9417" y2="103.883" gradientUnits="userSpaceOnUse">
<stop stop-color="#ADE2F5"/>
<stop offset="1" stop-color="#2C4C67"/>
</linearGradient>
<linearGradient id="paint1_linear_2070_2696" x1="79.4709" y1="46.7639" x2="9.34951" y2="46.7639" gradientUnits="userSpaceOnUse">
<stop offset="0.782867" stop-color="#2C4C67"/>
<stop offset="1" stop-color="#477A95"/>
</linearGradient>
<linearGradient id="paint2_linear_2070_2696" x1="31.4377" y1="88.7555" x2="40.9041" y2="11.4467" gradientUnits="userSpaceOnUse">
<stop offset="0.273518" stop-color="#B5ECFF"/>
<stop offset="0.604836" stop-color="#A1D4E8"/>
</linearGradient>
<linearGradient id="paint3_linear_2070_2696" x1="49.8641" y1="28.0485" x2="64.6735" y2="78.4023" gradientUnits="userSpaceOnUse">
<stop offset="0.466632" stop-color="#D4F0FB"/>
<stop offset="1" stop-color="#5897CD"/>
</linearGradient>
<linearGradient id="paint4_linear_2070_2696" x1="75.8349" y1="70.6408" x2="75.8349" y2="90.3786" gradientUnits="userSpaceOnUse">
<stop offset="0.171881" stop-color="#B5ECFF"/>
<stop offset="1" stop-color="#5897CD"/>
</linearGradient>
<linearGradient id="paint5_linear_2070_2696" x1="168" y1="0" x2="168" y2="107" gradientUnits="userSpaceOnUse">
<stop offset="0.15" stop-color="#294865"/>
<stop offset="0.5" stop-color="#477A95"/>
<stop offset="0.9" stop-color="#294865"/>
</linearGradient>
<linearGradient id="paint6_linear_2070_2696" x1="161" y1="2" x2="161" y2="105" gradientUnits="userSpaceOnUse">
<stop stop-color="#B5ECFF"/>
<stop offset="1" stop-color="#2C4C67"/>
</linearGradient>
<linearGradient id="paint7_linear_2070_2696" x1="161" y1="2" x2="161" y2="105" gradientUnits="userSpaceOnUse">
<stop stop-color="#72B0E5"/>
<stop offset="1" stop-color="#D4F0FB"/>
</linearGradient>
<linearGradient id="paint8_linear_2070_2696" x1="276.5" y1="0" x2="276.5" y2="107" gradientUnits="userSpaceOnUse">
<stop offset="0.15" stop-color="#294865"/>
<stop offset="0.495192" stop-color="#477A95"/>
<stop offset="0.9" stop-color="#294865"/>
</linearGradient>
<linearGradient id="paint9_linear_2070_2696" x1="269.5" y1="2" x2="269.5" y2="105" gradientUnits="userSpaceOnUse">
<stop stop-color="#D4F0FB"/>
<stop offset="1" stop-color="#294865"/>
</linearGradient>
<linearGradient id="paint10_linear_2070_2696" x1="269.5" y1="2" x2="269.5" y2="105" gradientUnits="userSpaceOnUse">
<stop stop-color="#72B0E5"/>
<stop offset="1" stop-color="#D4F0FB"/>
</linearGradient>
<linearGradient id="paint11_linear_2070_2696" x1="385.5" y1="0" x2="385.5" y2="107" gradientUnits="userSpaceOnUse">
<stop offset="0.15" stop-color="#294865"/>
<stop offset="0.552885" stop-color="#477A95"/>
<stop offset="0.9" stop-color="#294865"/>
</linearGradient>
<linearGradient id="paint12_linear_2070_2696" x1="378.5" y1="2" x2="378.5" y2="105" gradientUnits="userSpaceOnUse">
<stop stop-color="#D4F0FB"/>
<stop offset="1" stop-color="#294865"/>
</linearGradient>
<linearGradient id="paint13_linear_2070_2696" x1="378.5" y1="2" x2="378.5" y2="105" gradientUnits="userSpaceOnUse">
<stop stop-color="#72B0E5"/>
<stop offset="1" stop-color="#D4F0FB"/>
</linearGradient>
<linearGradient id="paint14_linear_2070_2696" x1="491.5" y1="0" x2="491.5" y2="107" gradientUnits="userSpaceOnUse">
<stop offset="0.15" stop-color="#294865"/>
<stop offset="0.418269" stop-color="#477A95"/>
<stop offset="0.9" stop-color="#294865"/>
</linearGradient>
<linearGradient id="paint15_linear_2070_2696" x1="484.5" y1="2" x2="484.5" y2="105" gradientUnits="userSpaceOnUse">
<stop stop-color="#D4F0FB"/>
<stop offset="1" stop-color="#294865"/>
</linearGradient>
<linearGradient id="paint16_linear_2070_2696" x1="484.5" y1="2" x2="484.5" y2="105" gradientUnits="userSpaceOnUse">
<stop stop-color="#72B0E5"/>
<stop offset="1" stop-color="#D4F0FB"/>
</linearGradient>
</defs>
</svg>
